<svg width="82" height="116" viewBox="0 0 82 116" fill="none" xmlns="http://www.w3.org/2000/svg">
<path d="M66.3485 83.4388C56.2914 85.3644 46.8157 80.0166 45.1839 71.4942C43.5522 62.9718 50.3823 54.502 60.4394 52.5764C70.4965 50.6508 79.9722 55.9986 81.604 64.521C83.2357 73.0435 76.4056 81.5132 66.3485 83.4388Z" fill="#9B9B9B"/>
<path d="M58.7324 47.8435C49.5679 52.4114 39.0007 49.8187 35.1299 42.0527C31.2591 34.2867 35.5506 24.2881 44.7151 19.7203C53.8796 15.1524 64.4468 17.7451 68.3176 25.5111C72.1884 33.2771 67.897 43.2757 58.7324 47.8435Z" fill="#9B9B9B"/>
<path d="M30.005 22.0778C25.5142 28.998 17.1198 31.523 11.2556 27.7175C5.39135 23.912 4.27799 15.217 8.76881 8.29677C13.2596 1.37652 21.654 -1.14846 27.5183 2.65706C33.3825 6.46258 34.4959 15.1575 30.005 22.0778Z" fill="#9B9B9B"/>
<path d="M50.9847 115.148C42.4636 115.313 35.4425 109.593 35.3027 102.372C35.1628 95.1513 41.9571 89.1639 50.4782 88.9989C58.9992 88.8338 66.0203 94.5536 66.1602 101.774C66.3 108.995 59.5057 114.983 50.9847 115.148Z" fill="#9B9B9B"/>
<path d="M23.01 104.61C9.26054 120.154 -18.9528 113.399 -29.4054 97.3449C-39.858 81.2904 -34.2643 53.0729 -14.8422 46.4718C7.13994 40.5404 27.1206 37.6826 37.5732 53.7371C48.0258 69.7915 39.4476 86.0272 23.01 104.61Z" fill="#9B9B9B"/>
</svg>
